# xmcd
#
# Track frame offsets:
#	182
#	12320
#	21640
#	38337
#	73467
#	86880
#	108062
#	122622
#	144102
#	155475
#	177020
#	195895
#	212020
#	234495
#
# Disc length: 3296 seconds
#
# Revision: 4
# Processed by: cddbd v1.4PL0 Copyright (c) Steve Scherf et al.
# Submitted via: audiograbber 1.80
#
DISCID=b10cde0e
DTITLE=Various Artist - A Tribute to Muddy Waters (King of the Blues)
DYEAR=1999
DGENRE=Blues
TTITLE0=Muddy Waters - Trouble No More
TTITLE1=[various artists] - Tributes
TTITLE2=Keb'Mo - I Can't Be Satisfied
TTITLE3=Buddy Guy - She's Nineteen Years Old
TTITLE4=Koko Taylor - Long Distance Call
TTITLE5=John Hiatt - The Same Thing
TTITLE6=Mem Shannon - Gypsy Woman
TTITLE7=Charlie Musselwhite - I Got a Rich Man's Woman
TTITLE8=Peter Wolf - Rollin and Tumblin
TTITLE9=Phoebe Snow - Just To Be With You
TTITLE10=Robert Junior Lockwood - Mean Red Spider
TTITLE11=Nick Gravenites - Forty Days and Forty Nights
TTITLE12=Bill Morganfield - Hoochie Coochie Man
TTITLE13=Muddy Waters - Got My Mojo Workin (including tributes)
EXTD=
EXTT0=
EXTT1=
EXTT2=
EXTT3=
EXTT4=
EXTT5=
EXTT6=
EXTT7=
EXTT8=
EXTT9=
EXTT10=
EXTT11=
EXTT12=
EXTT13=
PLAYORDER=
